# xmcd
# 
# Track frame offsets:
#     150
#     20050
#     38047
#     61650
#     76805
#     91325
#     99475
#     115147
#     136762
#     144462
# 
# Disc length: 2264
# 
# Revision: 13
# Processed by: cddbd v1.5.2PL0 Copyright (c) Steve Scherf et al.
# Submitted via: fre:ac v1.0.17
# 
DISCID=7508d60a
DTITLE=Joe Satriani - Surfing With The Alien
DYEAR=1987
DGENRE=Instrumental Rock
TTITLE0=Surfing With The Alien
TTITLE1=Ice 9
TTITLE2=Crushing Day
TTITLE3=Always With Me, Always With You
TTITLE4=Satch Boogie
TTITLE5=Hill Of The Skull
TTITLE6=Circles
TTITLE7=Lords Of Karma
TTITLE8=Midnight
TTITLE9=Echo
EXTD=
EXTT0=
EXTT1=
EXTT2=
EXTT3=
EXTT4=
EXTT5=
EXTT6=
EXTT7=
EXTT8=
EXTT9=
PLAYORDER=
